<?xml version="1.0" encoding="UTF-8"?><!DOCTYPE svg PUBLIC "-//W3C//DTD SVG 1.0//EN" "http://www.w3.org/TR/2001/REC-SVG-20010904/DTD/svg10.dtd" []><svg xmlns="http://www.w3.org/2000/svg" xmlns:xlink="http://www.w3.org/1999/xlink" fill="none" height="32" style="fill: none;" viewBox="0 0 120 32" width="120"><path d="M71.9683 8.45781C71.8963 8.45781 71.7523 8.38571 71.6803 8.31361C71.6083 8.31361 71.6083 8.24151 71.6803 8.16941C71.6803 8.09731 71.7523 8.09731 71.8243 8.09731C71.8963 8.09731 71.9683 8.16941 72.1124 8.24151C72.2564 8.31361 72.3284 8.31361 72.4724 8.31361C72.5444 8.31361 72.6164 8.38571 72.5444 8.45781C72.5444 8.52991 72.4004 8.52991 72.3284 8.52991C72.1844 8.60201 72.1124 8.52991 71.9683 8.45781ZM116.683 23.9593C116.683 24.6803 116.107 25.185 115.459 25.185C114.738 25.185 114.234 24.6082 114.234 23.9593C114.234 23.2383 114.81 22.7336 115.459 22.7336C116.107 22.7336 116.683 23.2383 116.683 23.9593ZM114.378 23.9593C114.378 24.5361 114.81 25.0408 115.459 25.0408C116.107 25.0408 116.539 24.5361 116.539 23.9593C116.539 23.3825 116.107 22.8778 115.459 22.8778C114.81 22.8778 114.378 23.3825 114.378 23.9593ZM115.171 24.6803H115.026V23.2383H115.603C115.963 23.2383 116.107 23.3825 116.107 23.5988C116.107 23.8872 115.963 23.9593 115.747 24.0314L116.179 24.6803H115.963L115.531 24.0314H115.243V24.6803H115.171ZM115.387 23.8872C115.603 23.8872 115.819 23.8872 115.819 23.5988C115.819 23.3825 115.675 23.3825 115.459 23.3825H115.099V23.8872H115.387ZM114.81 15.3073C114.594 14.1537 114.018 13.649 112.218 13.649H111.426V22.8778C111.426 24.3198 111.786 24.7524 113.082 24.7524V25.1129H107.682V24.7524C108.978 24.7524 109.338 24.3198 109.338 22.8778V13.7211H108.546C106.746 13.7211 106.242 14.2258 106.026 15.3794H105.666V13.0001H115.243V15.3794H114.81V15.3073ZM96.0895 25.1129V24.7524C97.3856 24.7524 97.7456 24.3198 97.7456 22.8778V15.1631C97.7456 13.7211 97.3136 13.2885 96.0895 13.2885V12.928H104.802V15.3073H104.442C104.226 14.1537 103.65 13.649 101.922 13.649H100.914C100.05 13.649 99.8337 14.1537 99.8337 15.1631V18.2634H101.922C102.93 18.2634 103.218 17.7587 103.362 17.0377H103.722V20.4985H103.362C103.218 19.7775 102.93 19.2007 101.922 19.2007H99.8337V23.022C99.8337 24.2477 99.9778 24.3198 100.914 24.3198H102.57C104.01 24.3198 104.802 23.5988 104.946 22.6615H105.306V25.1129H96.0895ZM83.4889 25.1129L79.8167 18.696C81.4728 18.6239 82.9849 17.8308 82.9849 16.1004C82.9849 14.2979 81.8328 13.649 80.3928 13.649C79.3847 13.649 79.0967 13.7932 79.0967 14.8747V22.8057C79.0967 24.2477 79.5287 24.6803 80.7528 24.6803V25.0408H75.3525V24.6803C76.6486 24.6803 77.0086 24.1756 77.0086 22.8057V15.1631C77.0086 14.2258 77.0086 13.3606 75.7125 13.3606V13.0001H80.3208C82.6969 13.0001 85.001 13.5769 85.001 16.0283C85.001 18.1192 83.2009 18.9123 82.1209 19.1286L84.569 23.0941C85.289 24.1756 85.505 24.7524 86.5131 24.7524C87.6651 24.7524 87.8811 24.1756 87.8811 22.8778V15.1631C87.8811 13.7211 87.4491 13.2885 86.1531 13.2885V12.928H94.9375V15.3073H94.5775C94.3615 14.1537 93.8574 13.649 92.0574 13.649H91.0493C90.1133 13.649 89.9692 14.1537 89.9692 15.1631V18.2634H92.0574C93.0654 18.2634 93.3534 17.7587 93.4974 17.0377H93.7854V20.4985H93.4974C93.3534 19.7775 93.0654 19.2007 92.0574 19.2007H89.9692V23.022C89.9692 24.2477 90.1133 24.3198 91.0493 24.3198H92.7054C94.1455 24.3198 94.9375 23.5988 95.0815 22.6615H95.4415V25.1129H83.4889ZM74.9925 15.3073C74.7045 14.2258 74.2005 13.7211 72.4004 13.7211H71.5363V22.9499C71.5363 24.3919 71.8963 24.8245 73.1924 24.8245V25.185H67.7921V24.8245C69.0882 24.8245 69.5202 24.3919 69.5202 22.9499V13.7211H68.6562C66.8561 13.7211 66.3521 14.2258 66.0641 15.3794H65.704V13.0001H75.2805V15.3794H74.9925V15.3073ZM60.3038 25.5455C58.5037 25.5455 57.0636 25.0408 56.2716 24.7524V21.8684H56.6316C56.9916 23.2383 57.7836 24.5361 60.4478 24.5361C62.3919 24.5361 63.7599 23.5267 63.6879 21.8684C63.6159 20.138 62.4639 19.2728 59.9437 18.1192C57.2076 16.8214 56.3436 15.5236 56.3436 13.8653C56.3436 11.2697 58.4317 9.97192 61.4558 9.97192C62.9679 9.97192 64.264 10.2603 64.984 10.4766V13.0001H64.624C64.408 11.7744 63.3999 10.9813 61.4558 10.9813C59.6557 10.9813 58.5037 11.8465 58.4317 13.2164C58.3597 14.5142 59.2237 15.2352 60.7358 15.9562C64.336 17.6145 65.632 18.7681 65.776 20.9311C65.92 23.6709 63.9039 25.5455 60.3038 25.5455ZM42.1589 25.1129V24.7524C43.4549 24.7524 43.8869 24.3198 43.8869 22.8778V15.1631C43.8869 13.7211 43.4549 13.2885 42.1589 13.2885V12.928H50.8713V15.3073H50.5113C50.2953 14.1537 49.7912 13.649 47.9911 13.649H46.9111C46.0471 13.649 45.831 14.1537 45.831 15.1631V18.2634H47.9191C48.9272 18.2634 49.2152 17.7587 49.3592 17.0377H49.7192V20.4985H49.3592C49.2152 19.7775 48.9272 19.2007 47.9191 19.2007H45.831V23.022C45.831 24.2477 45.975 24.3198 46.9111 24.3198H48.6392C50.0792 24.3198 50.8713 23.5988 51.0153 22.6615H51.3753V25.1129H42.1589ZM41.3668 15.3073C41.1508 14.1537 40.6468 13.649 38.8467 13.649H37.9826V22.8778C37.9826 24.3198 38.3427 24.7524 39.6387 24.7524V25.1129H34.2385V24.7524C35.5345 24.7524 35.8945 24.3198 35.8945 22.8778V13.7211H35.0305C33.2304 13.7211 32.7264 14.2258 32.4384 15.3794H32.0783V13.0001H41.6548V15.3794H41.3668V15.3073ZM28.6942 25.1129V24.7524C29.4142 24.7524 29.9182 24.6082 29.9182 24.0314C29.9182 23.8151 29.8462 23.5267 29.7742 23.2383L29.1262 21.3637H24.518L23.9419 23.022C23.8699 23.3104 23.7259 23.6709 23.7259 23.9593C23.7259 24.464 23.9419 24.7524 24.878 24.7524V25.1129H21.0618V24.7524C21.9978 24.7524 22.3579 24.1035 22.8619 22.6615L26.4621 12.928H28.1182L31.7903 22.9499C32.2944 24.2477 32.4384 24.6803 33.6624 24.7524V25.1129H28.6942ZM22.2139 15.3073C21.9258 14.2258 21.4218 13.7211 19.6217 13.7211H18.7577V22.9499C18.7577 24.3919 19.1177 24.8245 20.4138 24.8245V25.185H15.0135V24.8245C16.3096 24.8245 16.6696 24.3919 16.6696 22.9499V13.7211H15.8775C14.0775 13.7211 13.5734 14.2258 13.2854 15.3794H12.9254V13.0001H22.5739V15.3794H22.2139V15.3073ZM7.52512 25.5455C5.79704 25.5455 4.28496 25.0408 3.49292 24.7524V21.8684H3.85294C4.21296 23.2383 5.005 24.5361 7.66913 24.5361C9.61323 24.5361 10.9813 23.5267 10.9093 21.8684C10.8373 20.138 9.68523 19.2728 7.1651 18.1192C4.42897 16.8214 3.56492 15.5236 3.56492 13.8653C3.56492 11.2697 5.65303 9.97192 8.74918 9.97192C10.2613 9.97192 11.5573 10.2603 12.2774 10.4766V13.0001H11.9173C11.7013 11.7744 10.6933 10.9813 8.74918 10.9813C6.94909 10.9813 5.79704 11.8465 5.72503 13.2164C5.65303 14.5142 6.51707 15.2352 8.02915 15.9562C11.6293 17.6145 12.9254 18.7681 13.0694 20.9311C13.1414 23.6709 11.1253 25.5455 7.52512 25.5455ZM26.8941 14.9468L24.95 20.3543H28.7662L26.8941 14.9468Z" fill="#fff"/></svg>