<?xml version="1.0" encoding="UTF-8"?><!DOCTYPE svg PUBLIC "-//W3C//DTD SVG 1.0//EN" "http://www.w3.org/TR/2001/REC-SVG-20010904/DTD/svg10.dtd" []><svg xmlns="http://www.w3.org/2000/svg" xmlns:xlink="http://www.w3.org/1999/xlink" fill="none" height="32" style="fill: none;" viewBox="0 0 120 32" width="120"><path d="M36.5651 14.3737C36.8388 14.3737 37.0734 14.5949 37.0734 14.8812V24.5746C37.0734 24.8479 36.8258 25.0691 36.5651 25.0691H35.2487C35.0011 25.0691 34.7535 24.8739 34.7535 24.6007V23.7029C34.0888 24.6787 32.9419 25.3553 31.2736 25.3553C28.4845 25.3553 26.7642 23.5077 26.7642 20.7623V14.8551C26.7642 14.5819 27.0118 14.3607 27.2725 14.3607H28.5888C28.8625 14.3607 29.0841 14.5819 29.0841 14.8551V20.385C29.0841 22.1675 30.0225 23.3516 31.8732 23.3516C33.6848 23.3516 34.7535 22.1285 34.7535 20.411V14.8551C34.7535 14.5819 35.0011 14.3607 35.2487 14.3607L36.5651 14.3737ZM17.1457 9C12.6362 9 9 12.5001 9 17.1712C9 21.8553 12.6362 25.3423 17.1457 25.3423C17.9147 25.3423 18.6576 25.2382 19.3613 25.0431L20.2476 27.3201C20.3388 27.5673 20.5213 27.7234 20.8471 27.7234H22.2547C22.5936 27.7234 22.8412 27.5022 22.6848 27.0728L21.5379 24.0932C23.7926 22.675 25.2914 20.1638 25.2914 17.1581C25.2914 12.5001 21.6552 9 17.1457 9ZM20.6907 21.9203L19.6611 19.253C19.5699 19.0318 19.3874 18.8236 18.9964 18.8236H17.654C17.3151 18.8236 17.0545 19.0448 17.2109 19.4742L18.5663 22.9742C18.1232 23.0913 17.641 23.1434 17.1457 23.1434C13.8483 23.1434 11.5024 20.5541 11.5024 17.1712C11.5024 13.7882 13.8483 11.1989 17.1457 11.1989C20.4431 11.1989 22.7891 13.7882 22.7891 17.1712C22.7891 19.1489 21.994 20.8404 20.6907 21.9203ZM111.089 24.5226C111.206 24.7958 111.062 25.0561 110.737 25.0561H109.264C108.99 25.0561 108.769 24.926 108.677 24.6527L105.954 17.3403L103.19 24.6527C103.073 24.939 102.878 25.0561 102.604 25.0561H101.288C101.014 25.0561 100.818 24.939 100.701 24.6527L97.9121 17.3013L95.1621 24.6527C95.0448 24.926 94.8493 25.0561 94.5756 25.0561H93.1941C92.9204 25.0561 92.7249 24.926 92.6076 24.6527L89.8837 17.3013L87.0685 24.6527C86.9512 24.939 86.7557 25.0561 86.482 25.0561H85.1657C84.892 25.0561 84.6965 24.939 84.5792 24.6527L81.8292 17.3013L79.0792 24.6527C78.988 24.926 78.7664 25.0561 78.4927 25.0561H77.0591C76.7202 25.0561 76.5899 24.7828 76.7072 24.5226L80.4346 14.7901C80.5519 14.5038 80.7474 14.3607 81.0211 14.3607H82.6242C82.8979 14.3607 83.0934 14.4908 83.2107 14.7901L85.8955 21.8943L88.5543 14.7901C88.6716 14.5038 88.8671 14.3607 89.1408 14.3607H90.7178C90.9915 14.3607 91.187 14.4908 91.3043 14.7901L93.937 21.8943L96.5697 14.7901C96.687 14.5038 96.8825 14.3607 97.1562 14.3607H98.7462C99.0199 14.3607 99.2154 14.4908 99.3327 14.7901L102.004 21.8943L104.611 14.7901C104.728 14.5038 104.924 14.3607 105.198 14.3607H106.801C107.074 14.3607 107.27 14.4908 107.387 14.7901L111.089 24.5226ZM49.3245 14.3737H48.0082C47.7345 14.3737 47.4999 14.5949 47.4999 14.8812V15.7659C46.8352 14.7641 45.5319 14.0484 43.994 14.0484C41.0876 14.0484 38.5983 16.3384 38.5983 19.6824C38.5983 23.0653 41.1006 25.3423 43.9809 25.3423C45.5449 25.3423 46.8091 24.6267 47.5129 23.6248V24.5616C47.5129 24.8349 47.7606 25.0561 48.0212 25.0561H49.3376C49.6113 25.0561 49.8328 24.8349 49.8328 24.5616V14.8812C49.8198 14.5949 49.5982 14.3737 49.3245 14.3737ZM44.2416 23.2084C42.3257 23.2084 40.9573 21.6471 40.9573 19.7084C40.9573 17.7437 42.3127 16.2343 44.2416 16.2343C46.1444 16.2343 47.526 17.7437 47.526 19.7084C47.5129 21.6601 46.1314 23.2084 44.2416 23.2084ZM65.0295 23.5467C65.3162 23.8981 65.0686 24.1713 64.9122 24.2884C63.9998 24.978 62.7878 25.3553 61.4714 25.3553C58.148 25.3553 55.9323 22.9222 55.9323 19.7214C55.9323 16.5206 58.148 14.0614 61.4714 14.0614C62.7878 14.0614 63.9868 14.4388 64.9122 15.1284C65.0686 15.2455 65.2901 15.4797 65.0295 15.87L64.4039 16.7418C64.1562 17.0801 63.8695 16.989 63.6219 16.8329C63.0354 16.4816 62.3446 16.1823 61.5496 16.1823C59.6077 16.1823 58.3174 17.7437 58.3174 19.7214C58.3174 21.6991 59.6077 23.2475 61.5496 23.2475C62.3577 23.2475 62.9963 22.9352 63.5828 22.5969C63.8304 22.4668 64.0911 22.3497 64.3648 22.714L65.0295 23.5467ZM71.2332 14.0744C68.1053 14.0744 65.616 16.5206 65.616 19.7084C65.616 22.9222 68.1183 25.3423 71.2332 25.3423C74.3612 25.3423 76.8505 22.9092 76.8505 19.7084C76.8635 16.5336 74.3612 14.0744 71.2332 14.0744ZM71.2332 23.1954C69.3174 23.1954 67.9489 21.6601 67.9489 19.7214C67.9489 17.7567 69.3043 16.2474 71.2332 16.2474C73.1491 16.2474 74.5176 17.7567 74.5176 19.7214C74.5176 21.6601 73.1621 23.1954 71.2332 23.1954ZM53.9383 9.28625C54.225 9.28625 54.4335 9.53347 54.4335 9.7937V24.5486C54.4335 24.8219 54.238 25.0561 53.9383 25.0561H52.6219C52.3482 25.0561 52.1136 24.8089 52.1136 24.5486V9.80671C52.1136 9.53347 52.3613 9.29926 52.6219 9.29926L53.9383 9.28625Z" fill="#fff"/></svg>