<?xml version="1.0" encoding="UTF-8"?><!DOCTYPE svg PUBLIC "-//W3C//DTD SVG 1.0//EN" "http://www.w3.org/TR/2001/REC-SVG-20010904/DTD/svg10.dtd" []><svg xmlns="http://www.w3.org/2000/svg" xmlns:xlink="http://www.w3.org/1999/xlink" fill="none" height="32" style="fill: none;" viewBox="0 0 120 32" width="120"><path clip-rule="evenodd" d="M9 10.0462H13.6033V16.1256H17.1887V10H21.7457V24.7013H17.1887V17.9748H13.557V24.632H9V10.0462Z" fill="#fff" fill-rule="evenodd"/><path clip-rule="evenodd" d="M29.0323 13.6292C29.9344 13.583 30.8366 13.7217 31.6925 13.9991C32.9416 14.392 33.9825 15.2473 34.6071 16.38C35.4398 17.9518 35.5555 19.801 34.9541 21.4885C34.5146 22.7367 33.5893 23.7769 32.4095 24.3779C31.3917 24.8402 30.2814 25.0482 29.1711 25.002C27.8063 25.0482 26.4878 24.6784 25.3543 23.9387C24.3365 23.2221 23.6194 22.1819 23.2724 21.003C22.7635 19.2694 23.0411 17.397 24.082 15.8945C24.9842 14.6925 26.3258 13.9297 27.8294 13.7217C28.2227 13.6755 28.639 13.6292 29.0323 13.6292ZM30.559 16.0795C30.744 16.6574 30.8366 17.2583 30.8366 17.8593V21.3498C30.8134 22.1588 30.4896 22.9216 29.9344 23.5226C29.4718 23.9387 28.7547 23.8924 28.3383 23.4301C28.2689 23.3608 28.2227 23.2683 28.1764 23.1759C27.7369 22.5055 27.575 21.8814 27.5981 20.0091C27.6444 18.1367 27.5287 16.8423 27.8988 16.0795C28.2689 15.3167 28.6159 14.993 28.9629 14.9237C29.6568 14.7619 30.212 15.2242 30.559 16.0795Z" fill="#fff" fill-rule="evenodd"/><path clip-rule="evenodd" d="M40.8527 16.9809V24.6552H36.5964V13.9759H40.8527V15.4091C41.246 14.9005 41.7549 14.4613 42.3332 14.1839C43.5592 13.5829 44.9702 13.5367 46.2425 14.0221C47.2603 14.4613 47.9542 15.4322 48.0236 16.5186V24.6321H43.8367V17.2352C43.8599 16.8422 43.7442 16.4261 43.4898 16.1025C43.0734 15.7327 42.4488 15.6864 41.9631 15.9407C41.3616 16.2874 40.7833 16.8884 40.8527 16.9809Z" fill="#fff" fill-rule="evenodd"/><path clip-rule="evenodd" d="M53.8066 18.5528C53.7835 17.8593 53.8298 17.1889 53.8992 16.4955C53.9917 15.9407 54.2924 15.4091 54.7319 15.0392C55.264 14.7156 55.9348 14.7618 56.3974 15.1548C56.6981 15.4322 56.9063 15.7789 56.9988 16.1719C57.1145 16.6342 57.1608 17.0965 57.1608 17.5588V18.5296L53.8066 18.5528ZM49.9899 16.5186C51.1465 14.5538 53.3671 13.4212 55.6572 13.6292C58.3174 13.7679 59.8672 14.7156 60.7925 16.4724C61.3245 17.5588 61.5558 18.7608 61.5096 19.9628H53.8066V22.1356C53.8529 22.3899 53.9223 22.621 54.0611 22.8291C54.2461 23.0602 54.9401 23.9386 57.022 23.615C59.3583 23.2452 59.2658 21.6271 59.3583 21.6271H61.1857C61.1626 22.2974 60.885 22.9215 60.3992 23.407C59.4046 24.3085 58.1323 24.8632 56.7907 25.0019C55.2871 25.1406 53.1358 25.1868 51.424 23.7768C50.6144 23.1065 49.9899 22.2281 49.666 21.2341C49.2034 19.6854 49.319 18.0211 50.0361 16.5417L49.9899 16.5186Z" fill="#fff" fill-rule="evenodd"/><path clip-rule="evenodd" d="M92.6683 18.5528C92.6452 17.8593 92.6914 17.1889 92.7608 16.4955C92.8533 15.9407 93.1541 15.4091 93.5936 15.0392C94.1256 14.7156 94.7964 14.7618 95.2591 15.1548C95.5366 15.4322 95.7448 15.7789 95.8605 16.1719C95.9762 16.6342 96.0456 17.0965 96.0224 17.5588V18.5296L92.6683 18.5528ZM88.8746 16.5186C90.0312 14.5538 92.2519 13.4212 94.542 13.6292C97.2253 13.7679 98.752 14.7156 99.7004 16.4724C100.209 17.5588 100.441 18.7608 100.371 19.9628H92.7145V22.1356C92.7608 22.3899 92.8302 22.621 92.969 22.8291C93.1309 23.0602 93.848 23.9386 95.9299 23.615C98.2431 23.2452 98.1737 21.6271 98.22 21.6271H100.047C100.001 22.2974 99.7235 22.9215 99.2609 23.407C98.2662 24.3085 96.994 24.8632 95.6523 25.0019C94.1487 25.1406 91.9975 25.1868 90.2857 23.7768C89.4761 23.1065 88.8515 22.2281 88.5277 21.2341C88.065 19.6854 88.2038 18.0211 88.8978 16.5417L88.8746 16.5186Z" fill="#fff" fill-rule="evenodd"/><path clip-rule="evenodd" d="M61.1395 13.999H65.789L67.7784 19.0844L69.9065 14.0221H75.7589L77.6326 19.9859L79.2981 13.999H83.0455L84.8961 19.8934L86.5384 13.999H88.4353L85.4744 24.6552H81.9352L79.9689 18.4372L78.2803 24.6552H74.6717L71.4564 14.3689L66.9456 25.2331C66.6449 26.1346 66.1592 26.9667 65.5346 27.7064C64.725 28.5386 63.5684 28.8853 62.4118 28.6772C61.0007 28.423 60.3993 27.6833 60.2836 26.8049C60.1217 25.8803 60.7231 25.0019 61.6484 24.817C62.3886 24.5858 63.1751 24.8632 63.5684 25.5104C63.7997 25.9265 63.846 26.4119 63.7072 26.8743C63.6146 27.0592 63.499 27.221 63.3602 27.3828C63.7766 27.4521 64.1929 27.2903 64.4705 26.9898C64.8869 26.5275 65.1876 25.9728 65.3495 25.3949C65.3958 25.2562 65.4189 25.1175 65.4421 24.9788L61.1395 13.999Z" fill="#fff" fill-rule="evenodd"/><path d="M105.738 10.0001H101.644V24.6552H105.738V10.0001Z" fill="#fff"/><path d="M111.128 10.0232H107.033V24.6783H111.128V10.0232Z" fill="#fff"/></svg>