<?xml version="1.0" encoding="UTF-8"?><!DOCTYPE svg PUBLIC "-//W3C//DTD SVG 1.0//EN" "http://www.w3.org/TR/2001/REC-SVG-20010904/DTD/svg10.dtd" []><svg xmlns="http://www.w3.org/2000/svg" xmlns:xlink="http://www.w3.org/1999/xlink" fill="none" height="32" style="fill: none;" viewBox="0 0 120 32" width="120"><g clip-path="url(#a)" clip-rule="evenodd" fill="#fff" fill-rule="evenodd"><path d="M69.9099 26.6527C65.1591 30.1362 58.2742 32 52.3377 32C44.0218 32 36.54 28.9398 30.8734 23.8448C30.4318 23.446 30.8243 22.9007 31.364 23.21C37.4721 26.7504 45.0358 28.8747 52.8365 28.8747C58.1024 28.8747 63.8917 27.7922 69.2148 25.5377C70.0244 25.204 70.6949 26.0667 69.9099 26.6527Z"/><path d="M71.8805 24.3983C71.2754 23.6251 67.8657 24.032 66.3366 24.2111C65.8705 24.2681 65.7969 23.8611 66.2221 23.5762C68.9368 21.6717 73.3932 22.2252 73.9166 22.86C74.4399 23.503 73.7776 27.9468 71.2264 30.0711C70.8339 30.3967 70.4577 30.2257 70.6376 29.7944C71.21 28.3701 72.4938 25.1796 71.8805 24.3983Z"/><path d="M66.4428 10.147V8.29949C66.4428 8.02277 66.6554 7.83557 66.9088 7.83557H75.2248C75.4946 7.83557 75.7072 8.03091 75.7072 8.29949V9.88658C75.7072 10.1552 75.4782 10.497 75.0776 11.0504L70.7765 17.1709C72.3792 17.1302 74.0718 17.3662 75.5191 18.1801C75.8462 18.3673 75.9361 18.6359 75.9607 18.8964V20.866C75.9607 21.1346 75.6581 21.452 75.3474 21.2892C72.788 19.9544 69.3864 19.8079 66.5572 21.3055C66.2711 21.4601 65.9685 21.1508 65.9685 20.8823V19.0103C65.9685 18.7092 65.9685 18.1964 66.2711 17.7406L71.2671 10.6109H66.9252C66.6554 10.6109 66.4428 10.4237 66.4428 10.147Z"/><path d="M36.0985 21.6879H33.5718C33.3265 21.6717 33.1384 21.4926 33.1221 21.2566V8.33199C33.1221 8.07154 33.3428 7.86807 33.6127 7.86807H35.9758C36.2211 7.87621 36.4174 8.06341 36.4337 8.29943V9.99233H36.4828C37.096 8.35641 38.2572 7.59949 39.8108 7.59949C41.3971 7.59949 42.3865 8.36455 43.0979 9.99233C43.7112 8.35641 45.1012 7.59949 46.5894 7.59949C47.6524 7.59949 48.8135 8.03899 49.5167 9.01566C50.3181 10.1063 50.1545 11.6852 50.1545 13.0688V21.224C50.1545 21.4845 49.9338 21.6879 49.6639 21.6879H47.1373C46.8838 21.6717 46.6794 21.4682 46.6794 21.224V14.3711C46.6794 13.8258 46.7284 12.4666 46.6058 11.9457C46.4177 11.0748 45.8535 10.8306 45.1176 10.8306C44.5043 10.8306 43.8665 11.2376 43.6049 11.8887C43.3432 12.5398 43.3677 13.6304 43.3677 14.3629V21.2159C43.3677 21.4763 43.1469 21.6798 42.8771 21.6798H40.3586C40.1051 21.6635 39.9007 21.4601 39.9007 21.2159V14.3629C39.9007 12.9223 40.1378 10.7981 38.3389 10.7981C36.5237 10.7981 36.5891 12.8654 36.5891 14.3629V21.2159C36.5891 21.4763 36.3683 21.6879 36.0985 21.6879Z"/><path d="M82.8784 7.59143C86.6316 7.59143 88.6676 10.7982 88.6676 14.8839C88.6676 18.8231 86.419 21.9566 82.8784 21.9566C79.1906 21.9566 77.1873 18.7499 77.1873 14.7455C77.1791 10.7249 79.2151 7.59143 82.8784 7.59143ZM82.8948 10.2366C81.0304 10.2366 80.9159 12.7596 80.9159 14.3386C80.9159 15.9175 80.8914 19.2952 82.8784 19.2952C84.8409 19.2952 84.9308 16.5768 84.9308 14.9165C84.9308 13.8258 84.8817 12.5236 84.5547 11.49C84.2685 10.5866 83.7043 10.2366 82.8948 10.2366Z"/><path d="M93.5328 21.688H91.0143C90.7608 21.6718 90.5564 21.4683 90.5564 21.2241V8.29138C90.5809 8.05535 90.7853 7.86815 91.047 7.86815H93.3938C93.6146 7.87629 93.7944 8.03093 93.8435 8.22627V10.204H93.8926C94.604 8.43788 95.5934 7.59143 97.3432 7.59143C98.4798 7.59143 99.5837 7.99838 100.295 9.11341C100.957 10.147 100.957 11.8888 100.957 13.134V21.2729C100.933 21.5008 100.72 21.6799 100.467 21.6799H97.932C97.703 21.6636 97.5068 21.4927 97.4822 21.2729V14.2572C97.4822 12.841 97.6458 10.7737 95.8959 10.7737C95.2826 10.7737 94.7103 11.1807 94.4322 11.8074C94.0725 12.5969 94.0316 13.3863 94.0316 14.2572V21.216C94.0234 21.4764 93.8026 21.688 93.5328 21.688Z"/><path d="M59.8113 15.5106C59.8113 16.4954 59.8359 17.3093 59.3371 18.1802C58.9364 18.8883 58.2904 19.3278 57.5872 19.3278C56.6142 19.3278 56.05 18.5871 56.05 17.5046C56.05 15.356 57.9797 14.9653 59.8195 14.9653L59.8113 15.5106ZM62.3625 21.6473C62.199 21.7938 61.9537 21.8101 61.7656 21.7043C60.9234 21.0125 60.7762 20.687 60.3101 20.0277C58.9201 21.4357 57.9388 21.859 56.1399 21.859C54.0057 21.859 52.354 20.5486 52.354 17.936C52.354 15.8931 53.4661 14.5014 55.0524 13.8177C56.4261 13.2154 58.3477 13.1096 59.8113 12.9387V12.6132C59.8113 12.0109 59.8604 11.3028 59.5006 10.79C59.1981 10.3261 58.6012 10.1308 58.0778 10.1308C57.113 10.1308 56.2544 10.6273 56.0418 11.6446C56.0009 11.8725 55.8292 12.0923 55.6002 12.1085L53.1472 11.8481C52.9427 11.7993 52.7056 11.6365 52.771 11.3191C53.3434 8.36464 56.0336 7.46936 58.4376 7.46936C59.6723 7.46936 61.275 7.79492 62.248 8.72275C63.4828 9.87034 63.3601 11.3923 63.3601 13.0527V16.9756C63.3601 18.1558 63.8507 18.6766 64.3168 19.3115C64.4803 19.5394 64.513 19.808 64.3086 19.9789C63.7935 20.4184 62.8777 21.216 62.3625 21.6473Z"/><path d="M26.6377 15.5109C26.6377 16.4957 26.6623 17.3096 26.1635 18.1804C25.7628 18.8885 25.125 19.328 24.4136 19.328C23.4406 19.328 22.8764 18.5874 22.8764 17.5049C22.8764 15.3562 24.8061 14.9655 26.6377 14.9655V15.5109ZM29.1889 21.6476C29.0254 21.7941 28.7801 21.8104 28.592 21.7046C27.7498 21.0128 27.6026 20.6872 27.1365 20.0279C25.7465 21.436 24.7652 21.8592 22.9663 21.8592C20.8403 21.8592 19.1804 20.5488 19.1804 17.9362C19.1804 15.8934 20.2925 14.5016 21.8788 13.818C23.2525 13.2157 25.1741 13.1099 26.6377 12.939V12.6134C26.6377 12.0111 26.6868 11.303 26.3352 10.7903C26.0245 10.3264 25.4357 10.131 24.9124 10.131C23.9476 10.131 23.089 10.6275 22.8764 11.6449C22.8355 11.8728 22.6638 12.0925 22.4348 12.1088L19.9818 11.8483C19.7773 11.7995 19.5484 11.6367 19.6056 11.3193C20.1698 8.36488 22.86 7.4696 25.264 7.4696C26.4987 7.4696 28.1014 7.79516 29.0745 8.723C30.3092 9.87058 30.1865 11.3926 30.1865 13.0529V16.9759C30.1865 18.156 30.6771 18.6769 31.1432 19.3117C31.3068 19.5396 31.3395 19.8082 31.135 19.9791C30.6199 20.4186 29.7041 21.2162 29.1889 21.6476Z"/></g><defs><clipPath id="a"><path d="M0 0H120V32H0z" fill="#fff"/></clipPath></defs></svg>