<?xml version="1.0" encoding="UTF-8"?><!DOCTYPE svg PUBLIC "-//W3C//DTD SVG 1.0//EN" "http://www.w3.org/TR/2001/REC-SVG-20010904/DTD/svg10.dtd" []><svg xmlns="http://www.w3.org/2000/svg" xmlns:xlink="http://www.w3.org/1999/xlink" fill="none" height="32" style="fill: none;" viewBox="0 0 120 32" width="120"><path d="M28.1244 14.8311V17.6825H35.0056C34.8229 19.2598 34.2748 20.4732 33.4223 21.2619C32.448 22.2325 30.8647 23.3245 28.1244 23.3245C23.9227 23.3245 20.6343 19.9272 20.6343 15.7411C20.6343 11.5551 23.8618 8.15775 28.1244 8.15775C30.3775 8.15775 32.0826 9.06776 33.3005 10.2204L35.31 8.21842C33.605 6.58041 31.291 5.3064 28.1244 5.3064C22.3394 5.3064 17.4678 9.97777 17.4678 15.7411C17.4678 21.5045 22.3394 26.1759 28.1244 26.1759C31.2301 26.1759 33.605 25.1446 35.4318 23.2639C37.3196 21.3832 37.9285 18.7138 37.9285 16.5905C37.9285 15.9232 37.8676 15.3165 37.8067 14.8311H28.1244Z" fill="#fff"/><path d="M46.4538 12.4651C42.7392 12.4651 39.6335 15.3164 39.6335 19.1991C39.6335 23.0818 42.6783 25.9332 46.4538 25.9332C50.2293 25.9332 53.274 23.1425 53.274 19.2598C53.274 15.3164 50.2293 12.4651 46.4538 12.4651ZM46.4538 23.3245C44.3834 23.3245 42.6174 21.6258 42.6174 19.2598C42.6174 16.8331 44.3834 15.1951 46.4538 15.1951C48.5242 15.1951 50.2902 16.8331 50.2902 19.2598C50.2902 21.6258 48.5242 23.3245 46.4538 23.3245Z" fill="#fff"/><path d="M79.7633 13.9818H79.6415C78.9716 13.1931 77.6928 12.4651 76.0487 12.4651C72.6385 12.4651 69.7156 15.3771 69.7156 19.1991C69.7156 22.9605 72.6385 25.9332 76.0487 25.9332C77.6928 25.9332 78.9716 25.2052 79.6415 24.4165H79.7633V25.3872C79.7633 27.9352 78.3627 29.3306 76.1705 29.3306C74.3436 29.3306 73.2475 28.0565 72.7603 26.9039L70.2027 27.9959C70.9335 29.7552 72.943 31.9999 76.2313 31.9999C79.7024 31.9999 82.6862 29.9372 82.6862 24.9625V12.8291H79.8851V13.9818H79.7633ZM76.3531 23.3245C74.2827 23.3245 72.7603 21.5652 72.7603 19.2598C72.7603 16.8938 74.3436 15.1951 76.3531 15.1951C78.3627 15.1951 79.9459 16.9545 79.9459 19.3205C80.0068 21.6258 78.4236 23.3245 76.3531 23.3245Z" fill="#fff"/><path d="M61.6166 12.4651C57.902 12.4651 54.7964 15.3164 54.7964 19.1991C54.7964 23.0818 57.8411 25.9332 61.6166 25.9332C65.3921 25.9332 68.4369 23.1425 68.4369 19.2598C68.4369 15.3164 65.3921 12.4651 61.6166 12.4651ZM61.6166 23.3245C59.5462 23.3245 57.7802 21.6258 57.7802 19.2598C57.7802 16.8331 59.5462 15.1951 61.6166 15.1951C63.6871 15.1951 65.453 16.8331 65.453 19.2598C65.453 21.6258 63.6871 23.3245 61.6166 23.3245Z" fill="#fff"/><path d="M84.9395 5.60974H87.8624V25.9939H84.9395V5.60974Z" fill="#fff"/><path d="M96.875 23.3245C95.3526 23.3245 94.3174 22.6572 93.5866 21.2618L102.66 17.5611L102.356 16.7725C101.807 15.2558 100.042 12.4651 96.5705 12.4651C93.0995 12.4651 90.1765 15.1951 90.1765 19.1991C90.1765 22.9605 93.0386 25.9332 96.875 25.9332C99.9806 25.9332 101.747 24.0525 102.538 22.9605L100.224 21.4438C99.4326 22.5965 98.3973 23.3245 96.875 23.3245ZM96.6923 15.0131C97.9102 15.0131 98.9454 15.6198 99.2499 16.4691L93.1604 19.0171C93.0995 16.2265 95.1699 15.0131 96.6923 15.0131Z" fill="#fff"/></svg>