<?xml version="1.0" encoding="UTF-8"?><!DOCTYPE svg PUBLIC "-//W3C//DTD SVG 1.0//EN" "http://www.w3.org/TR/2001/REC-SVG-20010904/DTD/svg10.dtd" []><svg xmlns="http://www.w3.org/2000/svg" xmlns:xlink="http://www.w3.org/1999/xlink" fill="none" height="32" style="fill: none;" viewBox="0 0 120 32" width="120"><path d="M67.7739 6.84462L73.1385 4.84828L67.7739 2.79489V0L76.9623 3.7075V5.98905L67.7739 9.69655V6.84462Z" fill="#fff"/><path d="M17.0384 24.5266C15.098 24.5266 13.5 23.5569 13.5 21.3894V21.2754C13.5 18.6516 15.7828 17.739 18.5793 17.739H19.8919V17.2256C19.8919 16.1419 19.4353 15.5145 18.2939 15.5145C17.2666 15.5145 16.753 16.0849 16.6959 16.8834H13.8424C14.0707 14.4878 15.954 13.347 18.4651 13.347C21.0333 13.347 22.9166 14.4307 22.9166 17.1116V24.2984H20.006V23.0436C19.4353 23.8421 18.4651 24.5266 17.0384 24.5266ZM19.8919 20.762V19.7353H18.6934C17.2096 19.7353 16.4677 20.1346 16.4677 21.1043V21.2183C16.4677 21.9598 16.9242 22.4732 17.9515 22.4732C18.9788 22.4161 19.8919 21.8458 19.8919 20.762ZM29.708 24.5266C26.7403 24.5266 24.5717 22.7013 24.5717 19.0509V18.8798C24.5717 15.2293 26.8545 13.29 29.708 13.29C32.162 13.29 34.1595 14.5448 34.3878 17.3397H31.5342C31.363 16.313 30.7923 15.6286 29.7651 15.6286C28.5095 15.6286 27.5964 16.6553 27.5964 18.7657V19.1079C27.5964 21.2754 28.3954 22.245 29.7651 22.245C30.7923 22.245 31.5342 21.5035 31.7055 20.3057H34.4448C34.2736 22.8154 32.6186 24.5266 29.708 24.5266ZM40.8938 24.5266C37.9261 24.5266 35.7575 22.7013 35.7575 19.0509V18.8798C35.7575 15.2293 38.0403 13.29 40.8938 13.29C43.3478 13.29 45.3453 14.5448 45.5736 17.3397H42.72C42.5488 16.313 41.9781 15.6286 40.9509 15.6286C39.6953 15.6286 38.7822 16.6553 38.7822 18.7657V19.1079C38.7822 21.2754 39.5812 22.245 40.9509 22.245C41.9781 22.245 42.72 21.5035 42.8913 20.3057H45.6306C45.4594 22.8154 43.8044 24.5266 40.8938 24.5266ZM52.1367 24.5266C49.0549 24.5266 46.9433 22.7013 46.9433 19.1079V18.8798C46.9433 15.2863 49.169 13.29 52.0796 13.29C54.7619 13.29 56.9876 14.773 56.9876 18.3664V19.6783H49.968C50.0821 21.6176 50.9382 22.3591 52.1937 22.3591C53.3351 22.3591 53.9629 21.7317 54.1912 20.9902H56.9876C56.6452 22.9865 54.9331 24.5266 52.1367 24.5266ZM50.0251 17.6819H54.02C53.9629 16.0849 53.221 15.4004 52.0225 15.4004C51.1094 15.4574 50.2533 15.9708 50.0251 17.6819ZM58.8139 13.5752H61.8386V15.1722C62.3523 14.1456 63.4366 13.347 65.0916 13.347C67.032 13.347 68.3447 14.5448 68.3447 17.1116V24.2984H65.3199V17.5679C65.3199 16.313 64.8063 15.7426 63.722 15.7426C62.6947 15.7426 61.8386 16.3701 61.8386 17.739V24.2984H58.8139V13.5752ZM73.8805 10.324V13.5752H75.935V15.7997H73.8805V20.8761C73.8805 21.6746 74.2229 22.0739 74.9648 22.0739C75.4214 22.0739 75.7067 22.0169 75.9921 21.9028V24.2414C75.6497 24.3555 75.0219 24.4695 74.28 24.4695C71.9401 24.4695 70.8558 23.3858 70.8558 21.2183V15.7997H69.6002V13.5752H70.8558V11.5788L73.8805 10.324ZM87.235 24.2984H84.2673V22.7013C83.7537 23.728 82.7264 24.5266 81.1284 24.5266C79.188 24.5266 77.7613 23.3288 77.7613 20.8191V13.5752H80.786V20.4198C80.786 21.6746 81.2996 22.245 82.3269 22.245C83.3542 22.245 84.2102 21.5606 84.2102 20.2487V13.5752H87.235V24.2984ZM89.4607 13.5752H92.4854V15.5715C93.1132 14.1456 94.1405 13.4611 95.7384 13.4611V16.4271C93.6839 16.4271 92.4854 17.0545 92.4854 18.8227V24.3555H89.4607V13.5752ZM101.845 24.5266C98.7632 24.5266 96.6516 22.7013 96.6516 19.1079V18.8798C96.6516 15.2863 98.8773 13.29 101.788 13.29C104.47 13.29 106.696 14.773 106.696 18.3664V19.6783H99.7334C99.8475 21.6176 100.704 22.3591 101.959 22.3591C103.101 22.3591 103.728 21.7317 103.957 20.9902H106.753C106.296 22.9865 104.641 24.5266 101.845 24.5266ZM99.6763 17.6819H103.728C103.671 16.0849 102.929 15.4004 101.731 15.4004C100.818 15.4574 99.9617 15.9708 99.6763 17.6819Z" fill="#fff"/></svg>